<?xml version="1.0" standalone="no"?>
<!DOCTYPE svg PUBLIC "-//W3C//DTD SVG 20010904//EN"
 "http://www.w3.org/TR/2001/REC-SVG-20010904/DTD/svg10.dtd">
<svg version="1.0" xmlns="http://www.w3.org/2000/svg"
 width="958.000000pt" height="940.000000pt" viewBox="0 0 958.000000 940.000000"
 preserveAspectRatio="xMidYMid meet">

<g transform="translate(0.000000,940.000000) scale(0.100000,-0.100000)"
fill="#000000" stroke="none">
<path d="M295 9138 c-3 -7 -4 -488 -3 -1068 l3 -1055 1070 0 1070 0 0 1065 0
1065 -1068 3 c-849 2 -1069 0 -1072 -10z m1830 -1058 l0 -765 -760 0 -760 0
-3 755 c-1 415 0 761 3 768 3 10 161 12 762 10 l758 -3 0 -765z"/>
<path d="M912 8083 l3 -458 452 -3 453 -2 5 22 c3 13 4 219 3 458 l-3 435
-458 3 -457 2 2 -457z"/>
<path d="M3057 9143 c-4 -3 -7 -71 -7 -149 l0 -143 -147 -3 -148 -3 -3 -457
-2 -457 147 -3 148 -3 5 -150 5 -150 305 -5 305 -5 3 -152 3 -152 -153 -3
-153 -3 -5 -145 -5 -145 -150 0 -150 0 -3 148 -3 147 -149 0 -150 0 2 -457 3
-458 145 0 145 0 5 150 5 150 150 0 150 0 3 -298 c2 -279 1 -299 -15 -303 -10
-3 -286 -6 -613 -7 l-595 -2 -3 -152 -3 -153 -149 0 -150 0 0 155 0 155 150 0
150 0 0 150 0 149 153 3 152 3 0 150 0 150 -150 0 -150 0 -3 -152 -3 -153
-149 0 -150 0 0 -150 0 -150 -57 0 c-32 -1 -92 -1 -133 -1 -134 -2 -119 -21
-122 149 l-3 147 -150 0 -150 0 -5 -300 -5 -300 -145 -5 -145 -5 -2 -130 c-4
-195 13 -176 -161 -173 l-147 3 -5 150 -5 150 -150 0 -150 0 -3 -294 c-1 -199
1 -298 8 -305 7 -7 60 -10 144 -9 103 2 136 0 145 -11 8 -9 11 -100 9 -307
l-3 -294 -150 -5 -150 -5 0 -915 0 -915 150 0 150 0 3 303 2 302 155 0 155 0
0 -150 0 -150 150 0 149 0 3 -152 3 -153 150 0 150 0 0 150 0 150 -152 3 -153
3 0 149 0 150 758 0 c576 0 761 3 770 12 8 8 12 57 12 155 l0 143 150 0 150 0
0 -144 c0 -106 3 -146 13 -154 8 -7 71 -13 153 -14 l139 -3 0 -145 0 -145
-139 -3 c-82 -1 -145 -7 -153 -14 -10 -8 -13 -48 -13 -154 l0 -144 -150 0
-150 0 0 143 c0 98 -4 147 -12 155 -14 14 -574 17 -596 4 -9 -7 -12 -44 -10
-153 l3 -144 307 -3 307 -2 3 -153 3 -152 145 0 145 0 3 153 3 153 152 -3 152
-3 0 -300 0 -300 -141 -3 c-105 -2 -145 -6 -153 -16 -8 -9 -11 -60 -9 -152 l3
-139 150 -5 150 -5 3 -152 3 -152 -153 -3 -153 -3 0 -145 0 -145 150 -5 150
-5 5 -150 5 -150 152 -3 152 -3 3 -152 3 -152 147 -3 147 -3 3 -146 c4 -174
-13 -160 176 -153 l127 5 3 148 3 148 152 -3 152 -3 3 -148 3 -147 149 0 150
0 0 305 0 304 153 3 152 3 0 150 0 150 -139 3 c-93 2 -143 -1 -152 -9 -11 -9
-14 -45 -14 -155 l0 -144 -302 -2 -303 -3 -3 -153 -3 -153 -152 3 -152 3 -5
150 -5 150 -147 3 -148 3 0 142 c0 98 -4 147 -12 155 -8 8 -57 12 -155 12
l-143 0 0 150 0 150 604 0 c491 0 606 2 615 13 7 9 12 111 13 308 l3 294 455
5 455 5 3 148 3 147 302 -2 302 -3 0 -145 0 -145 -141 -3 c-101 -2 -145 -6
-153 -15 -6 -8 -12 -73 -13 -153 l-3 -139 -145 -5 -145 -5 0 -150 0 -150 300
-5 300 -5 0 -145 0 -145 -139 -3 c-82 -1 -145 -7 -153 -14 -10 -8 -13 -47 -13
-154 l0 -143 -147 -3 -148 -3 -3 -302 -2 -303 150 0 150 0 0 305 0 305 613 -2
612 -3 0 -150 0 -150 -147 -3 c-175 -3 -160 13 -156 -172 l3 -125 458 -3 457
-2 0 55 c1 30 1 97 1 148 l1 92 -149 5 -148 5 0 150 0 150 300 5 300 5 0 150
0 150 -455 5 -455 5 0 145 0 145 599 3 c422 1 603 5 613 13 10 9 13 72 13 310
l0 299 150 0 150 0 0 -142 c0 -79 4 -149 8 -156 7 -9 75 -12 308 -10 l299 3 3
139 c2 93 -1 143 -9 152 -9 11 -68 14 -310 14 l-300 0 3 147 3 148 150 5 150
5 0 150 0 150 -141 3 c-105 2 -145 6 -153 16 -8 9 -11 60 -9 152 l3 139 305 5
305 5 3 444 c1 319 -1 448 -9 457 -9 11 -70 14 -310 14 l-300 0 3 148 3 147
130 2 c195 4 176 -13 173 161 l-3 147 -139 3 c-82 1 -145 7 -153 14 -10 8 -13
47 -13 154 l0 144 308 2 307 3 0 455 0 455 -150 5 -150 5 -5 150 -5 150 -302
3 -303 2 0 150 0 150 303 2 302 3 0 150 0 150 -455 0 -455 0 -5 -150 -5 -150
-302 -3 -302 -2 -3 152 -3 153 -455 0 -455 0 -3 -301 -2 -302 22 -3 c13 -2 80
-3 150 -1 l127 3 3 147 3 147 308 3 307 2 -2 -302 -3 -303 -150 -5 -150 -5 -3
-302 -2 -303 -25 -1 c-90 -5 -234 -4 -255 1 l-25 6 -5 300 -5 299 -145 0 -145
0 -3 -298 -2 -298 -27 -10 c-16 -6 -189 -9 -457 -9 l-431 2 -3 -151 -3 -151
-307 2 -307 3 0 300 0 300 455 5 455 5 3 152 3 152 152 3 152 3 3 144 c2 109
-1 146 -10 153 -21 13 -272 10 -286 -4 -8 -8 -12 -57 -12 -155 l0 -143 -607
-2 -608 -3 -2 -130 c-4 -194 13 -175 -163 -175 l-149 0 -3 153 -3 152 -303 3
-303 2 3 153 3 152 148 3 147 3 0 149 0 149 153 3 152 3 3 153 3 152 154 0
155 0 0 -305 0 -305 150 0 149 0 3 148 3 147 150 5 150 5 0 150 0 150 -302 3
-303 2 0 155 0 155 150 0 150 0 2 303 3 302 152 3 153 3 2 -303 3 -303 150 0
150 0 3 303 2 302 303 -2 302 -3 3 -152 3 -152 -153 -3 -153 -3 -3 -444 c-2
-324 1 -447 9 -458 9 -11 42 -13 153 -11 l141 3 3 458 2 458 153 -3 152 -3 3
-147 3 -148 149 0 150 0 0 765 0 765 -150 0 -150 0 0 -144 c0 -106 -3 -146
-13 -154 -8 -7 -71 -13 -153 -14 l-139 -3 -5 -145 -5 -145 -150 0 -150 0 -3
303 -2 302 -305 0 -305 0 0 305 0 305 -457 -2 -458 -3 0 -145 0 -145 300 -5
300 -5 3 -152 3 -152 -148 -3 -148 -3 -5 -300 -5 -300 -152 -3 -153 -3 -2 303
-3 303 -150 5 -150 5 -3 303 -2 302 -453 0 c-250 0 -457 -3 -460 -7z m602
-307 c8 -9 10 -138 9 -457 l-3 -444 -150 0 -150 0 -5 145 -5 145 -139 3 c-82
1 -145 7 -153 14 -10 8 -13 74 -13 309 l0 299 299 0 c240 0 301 -3 310 -14z
m1541 -451 l0 -154 153 -3 152 -3 0 -300 0 -300 -152 -3 -153 -3 0 306 0 305
-143 0 c-98 0 -147 4 -155 12 -8 8 -12 57 -12 155 l0 143 155 0 155 0 0 -155z
m-922 -607 l-3 -153 -150 0 -150 0 -3 139 c-2 93 1 143 9 152 9 11 45 14 155
14 l145 0 -3 -152z m-306 -615 l3 -148 152 -3 152 -3 3 148 3 148 144 3 c109
2 146 -1 153 -10 4 -7 8 -75 8 -150 l0 -138 -155 0 -155 0 0 -155 0 -155 -149
0 c-127 0 -150 -2 -155 -16 -3 -9 -6 -78 -6 -155 l0 -140 -147 3 -148 3 -3
458 -2 457 150 0 149 0 3 -147z m4296 -1230 l3 -152 147 -3 147 -3 3 -139 c1
-80 7 -145 13 -153 8 -9 52 -13 153 -15 l141 -3 3 -147 3 -146 -38 -6 c-21 -3
-85 -4 -143 -2 -66 3 -109 1 -117 -6 -10 -8 -13 -49 -13 -154 l0 -144 -150 0
-149 0 -3 -152 -3 -153 -302 -3 -302 -2 -6 -33 c-3 -17 -4 -86 -3 -152 l3
-120 140 -2 c77 -2 146 -5 153 -8 10 -3 12 -39 10 -147 l-3 -143 -150 0 -150
0 -3 148 -3 147 -149 0 -149 0 -3 -147 -3 -148 -294 -3 c-193 -1 -299 -6 -307
-13 -10 -8 -14 -51 -16 -153 l-3 -141 -605 0 -605 0 -3 139 c-1 82 -7 145 -14
153 -8 10 -47 13 -154 13 l-144 0 -2 -307 -3 -308 -139 -3 c-93 -2 -143 1
-152 9 -11 9 -14 45 -14 155 l0 144 -302 2 -303 3 0 300 0 300 144 3 c109 2
146 -1 153 -10 4 -7 8 -75 8 -150 l0 -138 305 0 305 0 0 150 0 150 -144 0
c-110 0 -146 3 -155 14 -8 9 -11 59 -9 152 l3 139 150 0 150 0 3 -152 3 -152
141 0 c88 0 147 4 155 11 10 8 13 74 13 309 l0 299 303 -2 302 -3 3 -152 3
-153 154 0 154 0 3 153 3 152 455 5 455 5 5 150 5 150 145 0 145 0 6 -150 c3
-82 7 -151 7 -152 1 -2 139 -3 307 -3 l305 0 0 460 0 461 -152 -3 -153 -3 -3
-302 -2 -303 -78 -2 c-67 -1 -111 -1 -209 1 l-23 1 0 448 c0 326 3 451 12 460
8 8 94 11 307 9 l296 -2 3 -152z m-5524 -169 c3 -9 6 -143 6 -298 0 -206 -3
-285 -12 -294 -8 -8 -57 -12 -155 -12 l-142 0 -3 -147 -3 -148 -153 -3 -153
-3 3 -152 3 -152 150 -5 150 -5 3 -147 c3 -174 22 -157 -173 -161 l-130 -2 0
-145 0 -145 294 -3 c197 -1 299 -6 308 -13 10 -9 13 -48 13 -155 l0 -144 -767
-2 -768 -3 -3 -152 -3 -153 -149 0 -149 0 -3 153 -3 152 -150 5 -150 5 0 150
0 150 150 5 150 5 3 147 3 147 147 3 147 3 3 308 2 307 -150 0 -151 0 3 153 3
152 147 3 147 3 3 147 3 147 458 3 457 2 0 155 0 155 304 0 c268 0 305 -2 310
-16z m616 -139 l5 -150 150 -5 150 -5 0 -144 0 -145 -25 -6 c-35 -10 -562 -7
-577 3 -10 6 -13 78 -13 301 0 161 3 296 7 300 4 3 72 5 152 4 l146 -3 5 -150z
m920 -300 l0 -145 -26 -10 c-14 -6 -72 -10 -129 -10 -57 0 -115 4 -129 10
l-26 10 0 138 c0 76 3 142 7 145 3 4 73 7 155 7 l148 0 0 -145z m-920 -620 l5
-150 141 -3 c109 -2 144 1 152 11 7 8 13 69 14 153 l3 139 300 0 300 0 0 -150
0 -150 -150 -5 -150 -5 -3 -145 c-2 -100 -6 -147 -15 -152 -7 -4 -74 -8 -149
-8 l-137 0 -3 -147 -3 -148 -150 0 -150 0 -5 145 -5 145 -139 3 c-82 1 -145 7
-153 14 -10 8 -13 73 -13 303 0 160 3 295 7 299 4 3 72 5 152 4 l146 -3 5
-150z m5210 -920 l0 -154 153 -3 152 -3 0 -150 0 -150 -152 -3 -153 -3 0 -149
0 -150 -150 0 -150 0 0 150 0 150 -310 0 -310 0 0 -150 0 -150 -150 0 -150 0
0 150 0 150 150 0 149 0 3 153 3 152 308 3 307 2 0 148 c0 82 3 152 7 155 3 4
71 7 150 7 l143 0 0 -155z m-4602 -312 l3 -153 307 -2 307 -3 3 -147 3 -148
448 0 c370 0 451 -2 460 -14 8 -9 11 -59 9 -152 l-3 -139 -150 -5 -150 -5 -5
-150 -5 -150 -294 -3 c-164 -1 -299 2 -304 7 -5 5 -9 73 -10 152 l-2 144 -152
3 -153 3 -2 -303 -3 -303 -150 0 -150 0 -3 147 -3 147 -147 3 -147 3 0 305 0
305 145 0 145 0 2 -130 c4 -194 -14 -175 163 -175 l151 0 -3 153 -3 152 -152
3 -153 3 0 149 0 149 -147 3 -148 3 -3 153 -3 153 148 -3 148 -3 3 -152z
m2457 -458 l0 -300 -305 0 -305 0 -3 290 c-1 159 0 296 3 303 3 10 69 12 307
10 l303 -3 0 -300z m613 158 l-3 -148 -150 0 -150 0 -3 134 c-1 74 0 141 2
148 4 10 42 13 156 13 l151 0 -3 -147z m606 -472 c3 -4 6 -210 6 -457 l1 -449
-458 0 -458 0 -3 445 c-1 245 0 451 3 458 3 9 104 12 454 12 247 0 452 -4 455
-9z m624 -299 l2 -303 -152 3 -153 3 -3 290 c-1 159 0 296 3 303 3 10 39 12
152 10 l148 -3 3 -303z"/>
<path d="M5815 4537 c-3 -7 -4 -143 -3 -302 l3 -290 150 0 150 0 3 303 2 302
-150 0 c-112 0 -152 -3 -155 -13z"/>
<path d="M6432 4398 l3 -153 458 -3 458 -2 -3 152 -3 153 -458 3 -458 2 3
-152z"/>
<path d="M2130 5320 c0 -113 -3 -150 -12 -151 -10 -1 -617 -7 -885 -9 -23 0
-23 -1 -23 -150 l0 -150 460 0 460 0 0 149 c0 127 2 150 16 155 9 3 78 6 155
6 l140 0 -3 148 -3 147 -152 3 -153 3 0 -151z"/>
<path d="M1524 4227 c-2 -7 -3 -74 -2 -148 l3 -134 150 0 150 0 0 145 0 145
-148 3 c-115 2 -149 0 -153 -11z"/>
<path d="M8270 3475 l0 -155 150 0 150 0 0 155 0 155 -150 0 -150 0 0 -155z"/>
<path d="M7044 2387 c-2 -7 -3 -74 -2 -148 l3 -134 150 0 150 0 0 145 0 145
-148 3 c-115 2 -149 0 -153 -11z"/>
<path d="M5510 9000 l0 -150 150 0 149 0 3 -152 3 -153 150 0 150 0 3 153 3
152 304 0 305 0 0 150 0 150 -302 -2 -303 -3 -3 -147 -3 -148 -154 0 -155 0 0
150 0 150 -150 0 -150 0 0 -150z"/>
<path d="M7042 8083 l3 -1068 1070 0 1070 0 0 1065 0 1065 -1073 3 -1072 2 2
-1067z m1833 -3 l0 -765 -760 0 -760 0 -3 755 c-1 415 0 761 3 768 3 10 161
12 762 10 l758 -3 0 -765z"/>
<path d="M7657 8533 c-10 -9 -8 -885 1 -901 7 -10 105 -12 458 -10 l449 3 3
458 2 457 -453 0 c-250 0 -457 -3 -460 -7z"/>
<path d="M295 6678 c-3 -13 -4 -149 -3 -303 l3 -280 280 -5 c154 -3 291 -2
305 1 25 5 25 6 28 130 4 184 19 168 -156 171 l-147 3 -5 150 -5 150 -147 3
c-146 3 -148 2 -153 -20z"/>
<path d="M295 2388 c-3 -7 -4 -488 -3 -1068 l3 -1055 1070 0 1070 0 0 1065 0
1065 -1068 3 c-849 2 -1069 0 -1072 -10z m1830 -1058 l0 -765 -760 0 -760 0
-3 755 c-1 415 0 761 3 768 3 10 161 12 762 10 l758 -3 0 -765z"/>
<path d="M910 1330 l0 -460 458 2 457 3 0 455 0 455 -457 3 -458 2 0 -460z"/>
<path d="M4897 1784 c-4 -4 -7 -69 -7 -144 0 -105 3 -140 14 -149 9 -8 59 -11
152 -9 l139 3 0 150 0 150 -146 3 c-80 1 -148 -1 -152 -4z"/>
<path d="M8577 1474 c-4 -4 -7 -72 -7 -150 l0 -143 -147 -3 -148 -3 -3 -457
-2 -458 150 0 150 0 0 289 c0 159 3 296 6 305 5 14 28 16 155 16 l148 0 3
-152 3 -153 150 0 150 0 0 150 0 150 -152 3 -153 3 -2 302 -3 302 -146 3 c-80
1 -148 -1 -152 -4z"/>
<path d="M2750 410 l0 -150 303 2 302 3 0 145 0 145 -302 3 -303 2 0 -150z"/>
<path d="M6124 547 c-2 -7 -3 -74 -2 -148 l3 -134 150 0 150 0 0 145 0 145
-148 3 c-115 2 -149 0 -153 -11z"/>
</g>
</svg>
